<mxfile host="app.diagrams.net" modified="2022-10-25T04:13:32.997Z" agent="5.0 (X11; Linux x86_64) AppleWebKit/537.36 (KHTML, like Gecko) Chrome/106.0.0.0 Safari/537.36" etag="v-8seNQcMYnk6eZKlVcz" version="20.5.1" type="github">
  <diagram id="lNCFpdZJ06AK88d42ptf" name="Page-1">
    <mxGraphModel dx="1615" dy="900" grid="1" gridSize="10" guides="1" tooltips="1" connect="1" arrows="1" fold="1" page="1" pageScale="1" pageWidth="850" pageHeight="1100" math="0" shadow="0">
      <root>
        <mxCell id="0" />
        <mxCell id="1" parent="0" />
        <mxCell id="Uu0Jf4PMJ-URGkIZJFiq-8" style="edgeStyle=orthogonalEdgeStyle;rounded=0;orthogonalLoop=1;jettySize=auto;html=1;exitX=0;exitY=0.5;exitDx=0;exitDy=0;entryX=1;entryY=0.5;entryDx=0;entryDy=0;" edge="1" parent="1" source="Uu0Jf4PMJ-URGkIZJFiq-2" target="Uu0Jf4PMJ-URGkIZJFiq-7">
          <mxGeometry relative="1" as="geometry">
            <Array as="points">
              <mxPoint x="400" y="180" />
              <mxPoint x="400" y="180" />
            </Array>
          </mxGeometry>
        </mxCell>
        <mxCell id="Uu0Jf4PMJ-URGkIZJFiq-13" style="edgeStyle=orthogonalEdgeStyle;rounded=0;orthogonalLoop=1;jettySize=auto;html=1;" edge="1" parent="1" source="Uu0Jf4PMJ-URGkIZJFiq-2" target="Uu0Jf4PMJ-URGkIZJFiq-12">
          <mxGeometry relative="1" as="geometry" />
        </mxCell>
        <mxCell id="Uu0Jf4PMJ-URGkIZJFiq-2" value="Valid token?" style="rhombus;whiteSpace=wrap;html=1;" vertex="1" parent="1">
          <mxGeometry x="435" y="140" width="80" height="80" as="geometry" />
        </mxCell>
        <mxCell id="Uu0Jf4PMJ-URGkIZJFiq-3" value="Login&lt;br&gt;" style="rounded=1;whiteSpace=wrap;html=1;" vertex="1" parent="1">
          <mxGeometry x="415" y="20" width="120" height="60" as="geometry" />
        </mxCell>
        <mxCell id="Uu0Jf4PMJ-URGkIZJFiq-5" value="" style="edgeStyle=segmentEdgeStyle;endArrow=classic;html=1;rounded=0;exitX=0.5;exitY=1;exitDx=0;exitDy=0;entryX=0.5;entryY=0;entryDx=0;entryDy=0;" edge="1" parent="1" source="Uu0Jf4PMJ-URGkIZJFiq-3" target="Uu0Jf4PMJ-URGkIZJFiq-2">
          <mxGeometry width="50" height="50" relative="1" as="geometry">
            <mxPoint x="570" y="140" as="sourcePoint" />
            <mxPoint x="620" y="90" as="targetPoint" />
          </mxGeometry>
        </mxCell>
        <mxCell id="Uu0Jf4PMJ-URGkIZJFiq-7" value="Throw 401" style="rounded=0;whiteSpace=wrap;html=1;" vertex="1" parent="1">
          <mxGeometry x="240" y="150" width="120" height="60" as="geometry" />
        </mxCell>
        <UserObject label="No" placeholders="1" name="Variable" id="Uu0Jf4PMJ-URGkIZJFiq-10">
          <mxCell style="text;html=1;strokeColor=none;fillColor=none;align=center;verticalAlign=middle;whiteSpace=wrap;overflow=hidden;" vertex="1" parent="1">
            <mxGeometry x="360" y="160" width="80" height="20" as="geometry" />
          </mxCell>
        </UserObject>
        <mxCell id="Uu0Jf4PMJ-URGkIZJFiq-30" style="edgeStyle=orthogonalEdgeStyle;rounded=0;orthogonalLoop=1;jettySize=auto;html=1;" edge="1" parent="1" source="Uu0Jf4PMJ-URGkIZJFiq-12" target="Uu0Jf4PMJ-URGkIZJFiq-28">
          <mxGeometry relative="1" as="geometry" />
        </mxCell>
        <mxCell id="Uu0Jf4PMJ-URGkIZJFiq-12" value="&lt;pre style=&quot;box-sizing: border-box; max-height: 400px; min-height: 6em; overflow: auto; overflow-wrap: break-word; background: rgb(51, 51, 51); border-radius: 4px; color: white; font-weight: 600; hyphens: auto; margin-top: 0px; margin-bottom: 0px; padding: 0.5em; word-break: break-word;&quot; class=&quot;body-param__example microlight&quot;&gt;&lt;code style=&quot;box-sizing: border-box; font-family: Consolas, monaco, monospace; font-size: 1em; word-break: break-all;&quot; class=&quot;language-json&quot;&gt;&lt;span style=&quot;box-sizing: inherit;&quot;&gt;{&lt;br/&gt;&lt;/span&gt;&lt;span style=&quot;box-sizing: inherit;&quot;&gt;  &lt;/span&gt;&lt;span style=&quot;box-sizing: inherit;&quot; class=&quot;hljs-attr&quot;&gt;&quot;message&quot;&lt;/span&gt;&lt;span style=&quot;box-sizing: inherit;&quot;&gt;: &lt;/span&gt;&lt;span style=&quot;box-sizing: inherit; color: rgb(162, 252, 162);&quot;&gt;&quot;Hello world&quot;&lt;/span&gt;&lt;span style=&quot;box-sizing: inherit;&quot;&gt;,&lt;br/&gt;&lt;/span&gt;&lt;span style=&quot;box-sizing: inherit;&quot;&gt;  &lt;/span&gt;&lt;span style=&quot;box-sizing: inherit;&quot; class=&quot;hljs-attr&quot;&gt;&quot;deviceId&quot;&lt;/span&gt;&lt;span style=&quot;box-sizing: inherit;&quot;&gt;: &lt;/span&gt;&lt;span style=&quot;box-sizing: inherit; color: rgb(211, 99, 99);&quot;&gt;1&lt;/span&gt;&lt;span style=&quot;box-sizing: inherit;&quot;&gt;,&lt;br/&gt;&lt;/span&gt;&lt;span style=&quot;box-sizing: inherit;&quot;&gt;  &lt;/span&gt;&lt;span style=&quot;box-sizing: inherit;&quot; class=&quot;hljs-attr&quot;&gt;&quot;phoneNumber&quot;&lt;/span&gt;&lt;span style=&quot;box-sizing: inherit;&quot;&gt;: &lt;/span&gt;&lt;span style=&quot;box-sizing: inherit; color: rgb(162, 252, 162);&quot;&gt;&quot;0338613062&quot;&lt;/span&gt;&lt;span style=&quot;box-sizing: inherit;&quot;&gt;,&lt;br/&gt;&lt;/span&gt;&lt;span style=&quot;box-sizing: inherit;&quot;&gt;  &lt;/span&gt;&lt;span style=&quot;box-sizing: inherit;&quot; class=&quot;hljs-attr&quot;&gt;&quot;options&quot;&lt;/span&gt;&lt;span style=&quot;box-sizing: inherit;&quot;&gt;: {}&lt;br/&gt;&lt;/span&gt;}&lt;/code&gt;&lt;/pre&gt;" style="rounded=1;whiteSpace=wrap;html=1;align=left;" vertex="1" parent="1">
          <mxGeometry x="365" y="290" width="220" height="60" as="geometry" />
        </mxCell>
        <mxCell id="Uu0Jf4PMJ-URGkIZJFiq-25" style="edgeStyle=orthogonalEdgeStyle;rounded=0;orthogonalLoop=1;jettySize=auto;html=1;exitX=0;exitY=0.5;exitDx=0;exitDy=0;entryX=1;entryY=0.5;entryDx=0;entryDy=0;" edge="1" parent="1" source="Uu0Jf4PMJ-URGkIZJFiq-17" target="Uu0Jf4PMJ-URGkIZJFiq-19">
          <mxGeometry relative="1" as="geometry" />
        </mxCell>
        <mxCell id="Uu0Jf4PMJ-URGkIZJFiq-37" style="edgeStyle=orthogonalEdgeStyle;rounded=0;orthogonalLoop=1;jettySize=auto;html=1;exitX=0.5;exitY=1;exitDx=0;exitDy=0;" edge="1" parent="1" source="Uu0Jf4PMJ-URGkIZJFiq-17" target="Uu0Jf4PMJ-URGkIZJFiq-36">
          <mxGeometry relative="1" as="geometry" />
        </mxCell>
        <mxCell id="Uu0Jf4PMJ-URGkIZJFiq-17" value="Have port?" style="rhombus;whiteSpace=wrap;html=1;" vertex="1" parent="1">
          <mxGeometry x="418" y="540" width="115" height="120" as="geometry" />
        </mxCell>
        <mxCell id="Uu0Jf4PMJ-URGkIZJFiq-19" value="Throw 404 not found&lt;br&gt;port" style="whiteSpace=wrap;html=1;" vertex="1" parent="1">
          <mxGeometry x="240" y="570" width="120" height="60" as="geometry" />
        </mxCell>
        <UserObject label="No" placeholders="1" name="Variable" id="Uu0Jf4PMJ-URGkIZJFiq-22">
          <mxCell style="text;html=1;strokeColor=none;fillColor=none;align=center;verticalAlign=middle;whiteSpace=wrap;overflow=hidden;" vertex="1" parent="1">
            <mxGeometry x="355" y="570" width="80" height="20" as="geometry" />
          </mxCell>
        </UserObject>
        <UserObject label="Yes" placeholders="1" name="Variable" id="Uu0Jf4PMJ-URGkIZJFiq-26">
          <mxCell style="text;html=1;strokeColor=none;fillColor=none;align=center;verticalAlign=middle;whiteSpace=wrap;overflow=hidden;" vertex="1" parent="1">
            <mxGeometry x="415" y="230" width="80" height="20" as="geometry" />
          </mxCell>
        </UserObject>
        <UserObject label="Yes" placeholders="1" name="Variable" id="Uu0Jf4PMJ-URGkIZJFiq-27">
          <mxCell style="text;html=1;strokeColor=none;fillColor=none;align=center;verticalAlign=middle;whiteSpace=wrap;overflow=hidden;" vertex="1" parent="1">
            <mxGeometry x="390" y="670" width="80" height="20" as="geometry" />
          </mxCell>
        </UserObject>
        <mxCell id="Uu0Jf4PMJ-URGkIZJFiq-31" style="edgeStyle=orthogonalEdgeStyle;rounded=0;orthogonalLoop=1;jettySize=auto;html=1;entryX=0.5;entryY=0;entryDx=0;entryDy=0;" edge="1" parent="1" source="Uu0Jf4PMJ-URGkIZJFiq-28" target="Uu0Jf4PMJ-URGkIZJFiq-17">
          <mxGeometry relative="1" as="geometry" />
        </mxCell>
        <mxCell id="Uu0Jf4PMJ-URGkIZJFiq-28" value="Find available port by deviceId" style="rounded=1;whiteSpace=wrap;html=1;" vertex="1" parent="1">
          <mxGeometry x="415" y="430" width="120" height="60" as="geometry" />
        </mxCell>
        <mxCell id="Uu0Jf4PMJ-URGkIZJFiq-39" value="" style="edgeStyle=orthogonalEdgeStyle;rounded=0;orthogonalLoop=1;jettySize=auto;html=1;" edge="1" parent="1" source="Uu0Jf4PMJ-URGkIZJFiq-36" target="Uu0Jf4PMJ-URGkIZJFiq-38">
          <mxGeometry relative="1" as="geometry" />
        </mxCell>
        <mxCell id="Uu0Jf4PMJ-URGkIZJFiq-36" value="Find sim by port, network and device" style="rounded=1;whiteSpace=wrap;html=1;" vertex="1" parent="1">
          <mxGeometry x="415.5" y="710" width="120" height="60" as="geometry" />
        </mxCell>
        <mxCell id="Uu0Jf4PMJ-URGkIZJFiq-41" style="edgeStyle=orthogonalEdgeStyle;rounded=0;orthogonalLoop=1;jettySize=auto;html=1;entryX=1;entryY=0.5;entryDx=0;entryDy=0;" edge="1" parent="1" source="Uu0Jf4PMJ-URGkIZJFiq-38" target="Uu0Jf4PMJ-URGkIZJFiq-40">
          <mxGeometry relative="1" as="geometry" />
        </mxCell>
        <mxCell id="Uu0Jf4PMJ-URGkIZJFiq-43" value="" style="edgeStyle=orthogonalEdgeStyle;rounded=0;orthogonalLoop=1;jettySize=auto;html=1;" edge="1" parent="1" source="Uu0Jf4PMJ-URGkIZJFiq-38" target="Uu0Jf4PMJ-URGkIZJFiq-42">
          <mxGeometry relative="1" as="geometry" />
        </mxCell>
        <mxCell id="Uu0Jf4PMJ-URGkIZJFiq-38" value="Have sim?" style="rhombus;whiteSpace=wrap;html=1;rounded=1;" vertex="1" parent="1">
          <mxGeometry x="435.5" y="840" width="80" height="80" as="geometry" />
        </mxCell>
        <mxCell id="Uu0Jf4PMJ-URGkIZJFiq-40" value="Throw 404 not found&lt;br&gt;sim" style="whiteSpace=wrap;html=1;" vertex="1" parent="1">
          <mxGeometry x="245" y="850" width="120" height="60" as="geometry" />
        </mxCell>
        <mxCell id="Uu0Jf4PMJ-URGkIZJFiq-42" value="Send message" style="whiteSpace=wrap;html=1;rounded=1;" vertex="1" parent="1">
          <mxGeometry x="415.5" y="1010" width="120" height="60" as="geometry" />
        </mxCell>
      </root>
    </mxGraphModel>
  </diagram>
</mxfile>
